<?xml version="1.0" standalone="no"?>
<!DOCTYPE svg PUBLIC "-//W3C//DTD SVG 20010904//EN"
 "http://www.w3.org/TR/2001/REC-SVG-20010904/DTD/svg10.dtd">
<svg version="1.0" xmlns="http://www.w3.org/2000/svg"
 width="384.000000pt" height="384.000000pt" viewBox="0 0 384.000000 384.000000"
 preserveAspectRatio="xMidYMid meet">
<metadata>
Created by potrace 1.14, written by Peter Selinger 2001-2017
</metadata>
<g transform="translate(0.000000,384.000000) scale(0.100000,-0.100000)"
fill="#000000" stroke="none">
<path d="M1894 3649 c-3 -6 -15 -9 -25 -6 -10 3 -22 1 -25 -4 -3 -5 -9 -7 -14
-4 -5 3 -11 -4 -15 -15 -3 -11 -10 -20 -13 -20 -13 0 -41 38 -34 46 4 5 0 3
-8 -3 -9 -7 -38 -15 -65 -18 -28 -4 -65 -10 -84 -15 -19 -5 -38 -7 -43 -4 -4
3 -8 0 -8 -6 0 -6 -4 -9 -9 -5 -5 3 -13 1 -16 -5 -7 -11 40 -61 92 -97 29 -21
33 -21 47 -7 9 8 16 18 16 22 0 4 16 24 35 46 19 21 35 42 35 47 0 5 5 9 11 9
5 0 7 -5 3 -12 -4 -7 -3 -8 4 -4 20 12 13 -10 -8 -29 -11 -10 -22 -26 -26 -37
-3 -11 -11 -17 -18 -15 -6 3 -12 -3 -12 -12 -1 -9 -4 -24 -9 -33 -5 -14 -2
-18 13 -18 12 0 24 -4 27 -10 3 -5 15 -10 25 -10 10 0 21 -6 23 -12 4 -10 6
-10 6 0 1 8 6 10 13 6 18 -11 51 -13 68 -3 11 5 15 25 15 71 0 47 3 62 13 60
8 -1 11 2 7 8 -3 6 -10 8 -15 5 -13 -8 -10 67 3 83 5 6 7 12 4 12 -3 0 -9 -5
-13 -11z"/>
<path d="M1924 3639 c-3 -5 -3 -13 1 -18 3 -5 1 -12 -5 -16 -6 -4 -8 -10 -5
-15 11 -17 12 -70 2 -70 -7 0 -7 -4 1 -12 8 -8 9 -15 1 -25 -7 -8 -7 -13 -2
-13 6 0 10 -12 9 -27 -1 -23 3 -27 27 -28 15 -1 30 2 33 7 3 4 9 6 13 3 9 -5
101 23 114 35 8 7 -70 116 -116 162 -23 23 -63 33 -73 17z"/>
<path d="M3005 3618 c13 -65 74 -167 143 -237 48 -48 135 -105 145 -95 9 9
-44 125 -77 169 -51 69 -159 168 -194 180 -18 5 -20 2 -17 -17z"/>
<path d="M2040 3614 c8 -11 20 -24 25 -30 46 -51 62 -72 68 -87 3 -9 11 -17
18 -17 26 0 94 49 127 92 12 15 9 18 -30 29 -54 15 -57 16 -148 24 -71 7 -74
6 -60 -11z"/>
<path d="M760 3569 c-25 -17 -46 -34 -48 -40 -2 -5 -10 -9 -18 -9 -8 0 -14 -5
-14 -11 0 -5 -4 -7 -10 -4 -5 3 -10 0 -10 -7 0 -8 -15 -29 -34 -47 -19 -18
-42 -51 -52 -74 -10 -23 -21 -44 -24 -47 -5 -5 -30 -72 -30 -82 0 -28 131 66
188 136 61 74 122 198 103 210 -4 3 -27 -9 -51 -25z"/>
<path d="M1450 3567 c0 -5 -6 -7 -14 -4 -8 3 -16 1 -18 -4 -2 -6 -10 -11 -18
-12 -8 -2 -21 -6 -27 -10 -7 -5 -13 -5 -13 0 0 4 -4 3 -8 -3 -8 -13 -113 -64
-130 -64 -7 0 -12 -4 -12 -8 0 -12 -52 -36 -70 -33 -8 2 -12 0 -8 -4 4 -4 -32
-37 -80 -73 -84 -64 -170 -146 -222 -211 -14 -18 -33 -40 -42 -49 -10 -9 -18
-20 -18 -25 0 -5 -14 -26 -30 -47 -16 -21 -30 -41 -30 -44 0 -4 -11 -23 -23
-44 -13 -20 -22 -41 -20 -47 2 -6 104 -10 283 -9 231 1 280 -1 280 -12 0 -12
-51 -14 -294 -14 l-295 0 -24 -47 c-13 -27 -27 -61 -31 -78 -4 -16 -13 -43
-20 -60 -31 -72 -60 -235 -61 -345 l0 -75 345 0 c190 0 351 -4 359 -9 10 -7
12 -6 6 4 -5 9 -4 11 3 6 7 -4 12 -13 12 -19 0 -10 -81 -13 -356 -12 -196 0
-361 -3 -366 -6 -18 -11 1 -214 33 -339 6 -25 14 -54 19 -65 4 -11 13 -36 20
-55 7 -19 20 -51 28 -70 9 -19 17 -37 18 -40 1 -3 5 -15 9 -27 7 -21 27 -29
64 -24 8 2 10 -2 5 -11 -5 -9 -2 -8 11 2 17 13 18 13 10 0 -8 -13 -7 -13 8 -1
10 8 20 11 24 7 12 -11 -12 -26 -47 -29 -19 -1 -34 -7 -32 -12 4 -15 91 -150
112 -176 11 -12 20 -25 20 -29 0 -3 43 -50 95 -103 52 -54 95 -95 95 -92 0 3
8 -2 18 -10 68 -58 154 -113 257 -165 67 -33 126 -60 133 -60 7 0 26 -7 43
-15 29 -15 30 -15 79 31 27 25 54 43 60 39 6 -3 9 -1 8 7 -2 7 5 12 14 12 10
-1 15 2 12 7 -3 5 0 9 5 9 16 0 13 26 -5 44 -8 9 -12 20 -9 26 3 6 -1 13 -9
16 -9 3 -16 12 -16 19 0 7 -3 15 -7 17 -5 2 -24 35 -44 73 -31 61 -34 71 -18
71 9 0 16 -3 13 -7 -2 -4 -1 -9 4 -11 12 -5 52 -77 52 -94 0 -8 4 -14 10 -14
5 0 12 -11 16 -24 3 -14 12 -27 20 -30 8 -3 14 -12 14 -21 0 -8 5 -15 11 -15
5 0 7 -5 4 -11 -9 -14 38 -6 88 15 28 12 37 13 37 4 0 -10 2 -10 8 -1 4 6 25
13 47 15 l40 4 5 74 c5 67 6 72 20 55 19 -23 19 -47 0 -63 -8 -7 -10 -12 -5
-11 22 3 27 -2 15 -16 -9 -11 -9 -15 -1 -15 7 0 9 -5 6 -10 -5 -9 1 -12 21 -9
4 0 11 -5 15 -13 7 -10 9 -10 9 0 0 7 4 11 8 8 5 -3 21 -7 37 -10 16 -3 50
-13 75 -22 46 -17 48 -16 69 5 11 11 18 21 15 21 -4 0 2 12 11 27 29 43 84
145 101 184 13 32 44 50 44 27 0 -22 -94 -187 -103 -181 -5 3 -7 1 -3 -5 6
-11 -29 -80 -49 -95 -9 -7 0 -17 60 -61 11 -9 40 -31 63 -51 25 -20 49 -32 55
-28 7 4 14 8 17 9 7 1 37 13 90 37 98 42 156 71 168 84 12 12 20 14 38 12 3 0
13 8 22 18 9 10 30 27 45 36 85 55 332 307 332 340 0 5 8 15 18 22 10 7 18 15
17 17 -3 8 20 58 28 58 4 0 9 10 10 23 1 21 -2 23 -28 19 -17 -2 -38 2 -47 9
-12 10 -14 10 -9 2 5 -10 -2 -13 -26 -13 -19 0 -40 6 -47 13 -10 8 -12 8 -7 0
4 -8 -5 -12 -32 -11 -25 0 -39 5 -39 13 0 10 28 13 116 13 64 0 123 0 132 1
15 1 57 77 51 93 -1 5 2 8 7 8 4 0 14 21 21 48 7 26 16 52 20 57 4 6 13 35 19
65 7 30 15 62 18 70 3 8 7 24 9 35 1 11 5 34 9 50 3 17 7 68 8 115 l2 85 -373
0 c-330 -1 -372 1 -370 15 3 13 48 15 373 15 l370 0 -3 90 c-3 109 -43 302
-81 390 -7 17 -22 51 -34 78 -15 34 -26 47 -41 47 -12 1 -148 1 -303 0 -243
-1 -283 1 -283 14 0 12 41 15 287 15 157 1 288 3 290 4 5 6 -21 67 -29 67 -4
0 -8 7 -8 15 0 8 -3 15 -8 15 -4 0 -13 13 -20 29 -7 16 -20 38 -30 49 -9 12
-28 36 -42 54 -61 82 -174 189 -280 266 -2 2 2 7 10 12 9 6 10 10 3 10 -6 0
-15 -5 -19 -11 -5 -8 -10 -6 -16 5 -5 9 -13 16 -18 16 -5 0 -26 11 -47 26 -49
33 -187 99 -216 103 -4 0 -20 7 -37 16 -42 22 -65 19 -96 -14 -15 -17 -31 -28
-36 -25 -4 3 -8 0 -8 -6 0 -6 -16 -20 -35 -31 -36 -22 -44 -46 -23 -67 7 -7
21 -30 33 -51 11 -22 41 -80 67 -129 26 -49 44 -92 41 -96 -4 -3 0 -6 7 -6 7
0 10 -3 7 -7 -4 -3 -3 -11 2 -17 5 -6 16 -29 23 -52 13 -37 13 -40 -3 -41 -19
-2 -35 40 -23 59 4 6 3 8 -2 5 -6 -3 -16 9 -23 26 -23 54 -81 170 -106 212
-17 29 -20 44 -13 53 8 9 7 11 -6 6 -10 -4 -18 0 -23 12 -9 24 -28 44 -43 44
-6 0 -8 5 -4 12 4 7 3 8 -5 4 -6 -4 -9 -12 -6 -17 4 -5 3 -9 -2 -10 -4 0 -16
-2 -25 -5 -10 -2 -24 -5 -30 -7 -7 -1 -19 -7 -27 -11 -11 -7 -12 -6 -6 5 7 11
6 12 -6 2 -9 -7 -33 -14 -55 -15 l-39 -3 -1 -51 c0 -27 -4 -55 -8 -62 -4 -7
-2 -12 5 -12 8 0 8 -4 -1 -15 -7 -8 -8 -15 -3 -15 13 0 11 -63 -2 -72 -6 -5
-5 -8 3 -8 9 0 10 -5 2 -19 -5 -11 -6 -22 -1 -25 7 -5 4 -86 -4 -94 -2 -2 -8
-1 -14 2 -15 10 -13 289 2 298 9 6 9 8 0 8 -7 0 -13 9 -13 21 0 13 4 18 13 13
6 -4 4 1 -5 11 -10 11 -36 20 -60 22 -24 2 -68 13 -99 24 -31 11 -63 17 -70
14 -8 -3 -22 -24 -32 -46 -11 -25 -22 -37 -29 -33 -6 4 -8 3 -5 -3 3 -5 -18
-56 -46 -114 -29 -57 -64 -130 -77 -161 -14 -32 -31 -58 -38 -58 -15 0 -10 22
17 80 9 19 16 37 16 40 2 10 48 105 54 110 3 3 7 11 9 19 1 7 18 37 37 67 19
30 35 61 35 69 0 8 3 15 8 15 4 0 13 9 19 19 11 17 8 22 -25 42 -20 13 -56 41
-80 63 -40 37 -82 54 -82 33z m-125 -1478 c2 -13 6 -55 10 -94 8 -104 12 -141
20 -165 6 -20 5 -21 -14 -11 -13 7 -21 22 -22 39 0 15 -2 36 -5 47 -2 11 -6
58 -10 105 -3 46 -8 88 -10 91 -4 7 18 19 24 14 2 -1 5 -13 7 -26z m598 2 c2
-10 1 -25 -4 -32 -4 -7 -3 -21 2 -31 5 -10 6 -18 1 -18 -5 0 -7 -11 -4 -25 3
-18 0 -25 -11 -25 -12 0 -15 15 -15 75 0 54 4 75 13 75 7 0 15 -9 18 -19z
m593 -53 c-7 -70 -14 -130 -20 -173 -2 -11 -4 -27 -5 -36 0 -9 -8 -20 -17 -23
-14 -5 -15 1 -8 46 4 29 8 62 9 73 1 11 5 57 10 103 6 63 11 82 23 82 12 0 13
-12 8 -72z m-1707 -460 c8 -7 11 -8 8 -2 -5 8 25 11 105 10 71 -1 113 -5 115
-12 2 -7 -15 -11 -49 -10 -29 1 -60 -1 -68 -5 -8 -4 -24 -3 -35 1 -11 4 -34 4
-53 -1 -42 -9 -72 -1 -65 17 6 17 25 18 42 2z m2079 -3 c-2 -6 -13 -10 -25
-10 -12 0 -25 -3 -28 -7 -4 -4 -16 -3 -26 3 -11 5 -19 7 -19 4 0 -4 -5 -3 -10
0 -6 4 -8 11 -5 16 8 12 116 7 113 -6z"/>
<path d="M3378 3393 c-2 -5 -5 -24 -7 -43 -1 -19 -6 -39 -11 -44 -4 -4 -4 -21
0 -37 6 -21 5 -33 -6 -44 -9 -8 -11 -15 -5 -15 6 0 11 -7 11 -16 0 -13 -9 -11
-47 12 -27 15 -50 30 -53 34 -15 19 -170 67 -170 52 0 -19 47 -82 93 -126 29
-27 51 -53 49 -58 -1 -5 2 -7 7 -4 14 9 61 -15 54 -28 -3 -6 -3 -8 2 -4 4 4
24 0 44 -8 20 -9 41 -17 48 -18 7 -1 16 -5 19 -9 13 -13 52 -7 58 8 6 15 1
197 -6 225 -2 8 -16 41 -30 73 -25 52 -41 69 -50 50z"/>
<path d="M389 3293 c-21 -56 -27 -84 -33 -147 -1 -17 -8 -32 -14 -34 -8 -2 -7
-9 4 -20 15 -15 15 -16 -2 -22 -15 -6 -16 -7 -2 -13 9 -3 15 -14 14 -24 -7
-38 19 -59 49 -42 6 4 22 6 37 5 14 -1 24 2 22 6 -6 9 34 31 44 24 5 -3 14 4
22 14 8 10 17 17 22 14 4 -3 8 -1 8 5 0 5 8 12 18 15 43 14 172 163 155 179
-12 12 -183 -55 -191 -75 -2 -4 -9 -8 -16 -8 -7 0 -21 -9 -31 -20 -24 -27 -32
-18 -33 37 0 53 -8 115 -17 144 -11 35 -33 19 -56 -38z"/>
<path d="M3580 3105 c0 -9 -7 -18 -15 -21 -8 -4 -12 -10 -9 -15 3 -6 2 -15 -3
-22 -10 -13 -33 -81 -37 -111 -3 -22 -25 -34 -35 -20 -23 33 -191 121 -204
107 -16 -15 72 -154 133 -212 54 -50 186 -129 198 -117 3 3 2 6 -2 6 -4 0 -2
8 3 18 32 61 33 257 1 365 -11 37 -30 51 -30 22z"/>
<path d="M219 3069 c0 -2 -3 -17 -5 -34 -3 -16 -8 -32 -12 -35 -8 -6 -11 -51
-12 -155 0 -135 30 -233 60 -193 3 3 14 8 25 10 10 1 28 11 38 21 10 10 25 16
33 13 7 -3 13 -2 11 3 -1 4 31 41 70 82 40 41 73 80 73 87 0 7 3 11 8 9 4 -3
14 17 24 44 9 27 13 51 9 53 -10 7 -125 -46 -145 -67 -10 -9 -21 -15 -26 -12
-5 3 -18 -7 -29 -21 -14 -18 -22 -22 -25 -13 -14 51 -30 105 -31 109 -6 30
-62 115 -66 99z"/>
<path d="M3701 2711 c-23 -24 -41 -49 -41 -55 0 -7 -6 -18 -12 -24 -7 -7 -13
-16 -14 -20 0 -4 -6 -20 -12 -35 -14 -33 -18 -30 -66 41 -17 24 -41 53 -54 65
-13 12 -33 30 -44 41 -30 27 -42 8 -30 -48 7 -33 6 -46 -2 -46 -6 0 -3 -5 7
-11 9 -5 17 -17 17 -25 0 -8 9 -34 20 -56 11 -23 20 -48 20 -55 0 -7 4 -13 9
-13 5 0 18 -15 28 -32 27 -46 84 -108 99 -108 12 0 51 56 73 105 31 70 52 155
56 220 5 100 -4 109 -54 56z"/>
<path d="M77 2633 c6 -110 16 -166 36 -190 5 -7 6 -13 3 -13 -11 0 54 -117 75
-136 17 -15 20 -14 63 32 26 27 46 52 46 56 0 4 13 27 29 50 16 24 33 56 36
71 4 15 11 27 15 27 8 0 18 47 27 118 4 43 4 43 -19 31 -25 -13 -128 -114
-128 -127 0 -4 -8 -17 -18 -30 l-18 -23 -29 66 c-15 36 -37 71 -47 76 -10 5
-18 16 -18 23 0 8 -8 16 -17 20 -10 3 -23 8 -29 11 -7 4 -9 -16 -7 -62z"/>
<path d="M3472 2377 c-7 -7 -10 -16 -8 -18 2 -2 7 -17 10 -34 18 -105 24 -121
73 -222 50 -102 52 -103 111 -45 56 56 110 159 137 262 0 3 5 15 9 28 12 35 3
36 -48 9 -25 -13 -43 -27 -39 -30 3 -4 -1 -9 -10 -13 -9 -3 -32 -30 -52 -60
-20 -30 -38 -54 -39 -54 -2 0 -13 20 -25 45 -20 43 -27 53 -82 117 -21 25 -27
27 -37 15z"/>
<path d="M315 2307 c-22 -23 -47 -56 -55 -72 -8 -17 -19 -33 -25 -37 -5 -4 -6
-8 -2 -8 4 0 3 -10 -4 -21 -11 -21 -12 -21 -27 12 -24 49 -139 159 -167 159
-11 0 -4 -38 19 -102 13 -38 22 -68 18 -68 -3 0 1 -8 9 -17 8 -10 23 -35 33
-55 11 -21 44 -61 74 -89 l55 -51 18 23 c20 26 80 145 86 169 15 58 25 200 15
200 -4 -1 -25 -20 -47 -43z"/>
<path d="M3464 2082 c-18 -13 -6 -283 14 -317 4 -5 8 -18 9 -28 2 -10 10 -31
18 -47 11 -21 20 -27 35 -23 11 3 20 9 20 13 0 5 9 12 20 15 11 4 17 11 14 17
-5 8 -1 9 10 5 9 -4 15 -3 12 2 -3 5 9 22 27 38 17 16 38 38 45 49 39 59 59
94 79 137 l23 48 -28 -4 c-41 -7 -83 -31 -133 -76 -46 -41 -59 -43 -59 -10 0
11 -7 33 -15 48 -8 16 -11 31 -8 35 4 3 1 6 -5 6 -7 0 -12 9 -12 19 0 11 -3
21 -8 23 -4 2 -17 15 -28 30 -11 14 -25 23 -30 20z"/>
<path d="M353 2015 c-7 -8 -13 -19 -13 -25 0 -5 -4 -10 -10 -10 -5 0 -9 -3 -8
-7 0 -5 -6 -25 -15 -45 -10 -21 -17 -44 -17 -52 0 -8 -5 -18 -11 -21 -6 -4 -8
-13 -5 -21 9 -23 -11 -16 -32 11 -11 14 -22 25 -26 25 -3 0 -25 13 -48 29 -50
34 -98 48 -98 29 0 -21 60 -138 70 -138 6 0 10 -6 10 -13 0 -7 29 -42 65 -79
36 -36 65 -63 65 -60 0 3 9 -3 20 -13 29 -26 44 -14 59 51 7 33 16 63 19 69
10 17 16 125 13 245 -1 42 -15 51 -38 25z"/>
<path d="M3707 1724 c-34 -12 -118 -74 -102 -74 4 0 -1 -7 -10 -17 -9 -9 -27
-32 -41 -52 -13 -20 -34 -49 -48 -65 l-24 -29 2 39 c8 116 -65 136 -144 40
-14 -16 -33 -38 -42 -48 -10 -10 -18 -20 -18 -23 0 -2 -15 -36 -34 -74 -33
-68 -51 -121 -41 -121 8 0 45 39 45 48 0 11 61 67 89 82 19 10 26 9 38 -3 20
-19 8 -87 -16 -87 -10 0 -12 -3 -5 -8 12 -7 7 -17 -49 -101 -28 -43 -63 -81
-73 -81 -3 0 -4 8 -3 18 5 26 -18 59 -43 64 -43 8 -83 -17 -206 -129 -31 -29
-65 -55 -75 -59 -9 -3 -15 -10 -12 -15 4 -5 2 -9 -4 -9 -5 0 -23 -11 -39 -25
-16 -13 -32 -22 -36 -18 -3 3 -6 -1 -6 -11 0 -13 6 -15 28 -10 15 4 36 11 47
17 11 6 21 10 23 9 5 -4 118 58 151 82 26 19 38 23 52 15 11 -5 19 -13 19 -18
0 -17 -62 -101 -71 -95 -5 3 -9 -1 -9 -8 0 -7 -16 -24 -36 -38 -19 -14 -54
-39 -77 -57 -23 -18 -43 -30 -46 -27 -2 2 -13 -3 -23 -13 -17 -15 -18 -15 -18
9 0 55 -60 83 -127 57 -15 -6 -30 -10 -32 -9 -2 1 -7 -2 -10 -7 -8 -12 -79
-53 -99 -57 -10 -1 -30 -8 -47 -15 -16 -7 -42 -13 -57 -14 -37 -3 -43 -23 -10
-35 31 -10 83 -7 162 9 79 17 99 18 105 8 13 -21 -89 -87 -141 -91 -13 -1 -24
-5 -24 -9 0 -6 -24 -14 -70 -24 -61 -13 -82 -39 -72 -88 3 -14 11 -17 35 -14
18 3 43 9 57 15 14 5 27 10 30 10 8 1 52 18 113 45 31 14 57 23 57 19 0 -4 4
-2 8 5 6 9 78 47 112 58 3 1 13 5 22 9 9 4 26 2 37 -4 21 -11 21 -12 5 -39
-27 -46 -219 -145 -264 -136 -11 2 -20 0 -20 -4 0 -10 25 -32 31 -27 2 2 33 6
69 10 36 3 75 8 88 11 30 5 127 50 147 67 38 31 85 82 86 92 6 50 5 63 -4 81
-6 11 -10 23 -9 28 1 4 -6 7 -16 7 -14 1 -12 4 8 21 23 19 206 187 236 216 18
19 42 5 40 -23 0 -13 -4 -24 -8 -24 -4 0 -9 -9 -13 -20 -3 -11 -27 -41 -53
-68 -59 -60 -77 -82 -66 -82 5 0 22 11 38 25 16 14 33 25 37 25 12 0 140 132
134 138 -3 3 1 15 9 26 17 27 13 81 -7 104 -14 16 -11 23 36 87 57 76 78 88
93 54 10 -22 2 -115 -13 -149 -3 -8 -5 -21 -4 -27 1 -7 -2 -13 -7 -13 -8 0
-16 -18 -22 -47 0 -2 -16 -29 -34 -60 -19 -32 -33 -59 -31 -61 6 -7 45 23 50
38 3 9 18 30 34 47 16 18 26 34 23 37 -3 3 0 6 6 6 7 0 12 5 12 11 0 6 9 23
20 39 25 35 78 172 80 208 5 71 -1 109 -20 130 -11 12 -20 24 -20 27 0 3 16
23 36 45 26 29 44 40 65 40 25 0 29 -4 30 -27 3 -46 2 -55 -5 -121 -8 -77 3
-75 42 6 14 32 27 59 27 62 1 3 7 18 14 34 20 49 29 146 17 180 -8 24 -44 70
-50 65 -1 0 -18 -7 -39 -15z"/>
<path d="M98 1673 c-45 -12 -61 -119 -31 -206 17 -49 79 -165 100 -187 15 -16
15 -9 -2 70 -14 66 -15 85 -10 112 5 21 12 28 30 28 25 0 105 -68 105 -89 0
-7 -4 -10 -9 -7 -13 8 -31 -49 -31 -96 0 -101 91 -283 196 -390 46 -47 64 -39
26 10 -31 39 -86 150 -97 192 -3 14 -7 45 -9 68 -3 38 0 45 21 55 22 10 27 8
44 -13 10 -14 19 -29 19 -33 0 -5 15 -25 34 -45 31 -33 33 -38 20 -56 -17 -25
-18 -79 -2 -109 23 -44 74 -100 123 -135 27 -20 52 -39 55 -43 3 -3 15 -9 27
-13 18 -6 22 -4 17 8 -3 9 -10 16 -15 16 -7 0 -62 53 -97 95 -16 18 -36 84
-28 92 11 11 45 -10 97 -60 54 -52 94 -86 163 -141 41 -32 44 -42 16 -51 -11
-4 -18 -10 -16 -14 3 -4 1 -13 -4 -20 -15 -25 20 -94 64 -127 54 -41 125 -78
176 -91 33 -9 181 -10 186 -2 3 5 2 9 -3 10 -30 3 -48 9 -51 19 -2 5 -8 8 -13
5 -16 -10 -161 57 -195 91 -39 37 -42 50 -14 59 21 7 97 -11 102 -23 5 -13
272 -108 321 -114 12 -2 27 -7 34 -11 8 -5 15 1 19 19 8 32 -13 76 -38 81 -28
5 -53 11 -53 13 0 1 -13 4 -30 6 -16 3 -48 12 -70 20 -22 9 -48 18 -57 19 -29
6 -68 39 -65 55 3 16 25 18 97 5 73 -13 181 -9 191 6 6 11 -8 18 -61 30 -38 9
-109 36 -157 60 -52 25 -100 43 -118 42 -36 -2 -79 -47 -72 -74 3 -11 2 -19
-2 -19 -14 0 -61 25 -61 33 0 4 -4 7 -10 7 -15 0 -80 47 -73 54 4 3 -2 6 -11
6 -10 0 -42 24 -72 54 -51 51 -67 87 -44 101 5 3 10 2 10 -4 0 -6 7 -8 15 -5
8 3 40 -9 72 -27 32 -19 62 -32 67 -31 5 2 6 -4 2 -13 -3 -10 -2 -13 4 -10 6
4 25 2 43 -4 46 -14 107 -22 107 -13 0 4 -15 14 -32 21 -18 8 -38 20 -44 25
-6 6 -26 22 -44 36 -47 35 -162 127 -180 144 -17 15 -55 29 -85 31 -25 2 -65
-33 -59 -50 3 -7 1 -16 -4 -19 -18 -11 -142 144 -142 178 0 8 -4 18 -10 21
-14 9 -12 52 3 62 6 4 21 6 31 4 21 -3 76 -41 76 -52 0 -9 65 -79 73 -79 4 0
1 15 -7 34 -8 19 -12 37 -8 40 3 3 1 6 -5 6 -6 0 -17 15 -24 33 -11 28 -52 91
-99 153 -23 31 -87 66 -108 60 -25 -8 -42 -48 -42 -99 l0 -42 -23 25 c-13 14
-27 32 -33 41 -23 41 -118 139 -149 153 -34 16 -38 17 -67 9z"/>
<path d="M1788 1034 c-84 -21 -100 -42 -64 -80 6 -6 20 -23 31 -38 26 -36 96
-106 106 -106 31 0 34 12 32 118 -1 59 -2 110 -2 113 -1 10 -53 6 -103 -7z"/>
<path d="M1923 1034 c-3 -7 -2 -18 2 -24 3 -5 1 -10 -5 -10 -6 0 -8 -5 -4 -12
10 -16 12 -76 2 -90 -3 -7 -2 -20 3 -30 5 -10 6 -18 1 -18 -13 0 -11 -27 2
-27 6 0 18 -4 27 -7 11 -5 29 8 60 42 77 84 94 106 97 129 3 19 -5 25 -55 39
-71 22 -123 25 -130 8z"/>
<path d="M1641 976 c-7 -9 -32 -28 -56 -43 -63 -39 -65 -69 -5 -78 8 -1 31 -5
50 -9 132 -25 150 -26 150 -10 0 8 -5 14 -12 14 -6 0 -9 2 -6 5 5 5 -11 26
-78 101 -27 30 -33 33 -43 20z"/>
<path d="M2159 983 c-8 -2 -22 -13 -30 -24 -36 -53 -67 -88 -73 -84 -3 3 -4 2
-1 -2 3 -3 -2 -17 -10 -30 -17 -25 -25 -25 90 -7 84 13 146 28 151 36 7 11
-93 105 -106 100 -3 -1 -4 3 -2 8 1 6 1 9 0 9 -2 -1 -10 -3 -19 -6z"/>
<path d="M2310 726 c-6 -5 -66 -16 -123 -22 -21 -2 -44 -7 -50 -11 -7 -4 -19
-8 -27 -8 -45 -4 -46 -4 -47 -61 -1 -61 6 -68 86 -80 20 -3 39 -8 43 -10 4 -3
35 -5 69 -5 44 -1 66 3 73 13 6 8 11 53 11 99 0 68 -3 84 -15 87 -9 1 -18 1
-20 -2z"/>
<path d="M1526 712 c-10 -17 -8 -118 3 -159 10 -36 15 -41 34 -37 12 2 45 6
72 9 41 3 102 15 125 24 3 1 15 4 28 7 12 4 22 13 22 21 0 8 5 11 11 7 8 -5 8
-1 0 14 -6 11 -11 32 -11 46 0 35 4 34 -165 61 -76 12 -114 15 -119 7z"/>
<path d="M1861 681 c-12 -8 -5 -111 8 -124 10 -10 90 -12 120 -2 11 3 20 14
20 23 0 9 1 34 2 54 0 20 -2 42 -6 48 -7 11 -125 12 -144 1z"/>
<path d="M1709 479 c-19 -23 -42 -50 -51 -60 -10 -10 -20 -30 -24 -44 -3 -14
-9 -25 -13 -25 -4 0 -12 -12 -18 -27 -6 -16 -18 -45 -27 -65 l-16 -37 55 25
c55 25 95 25 95 0 0 -19 39 -51 49 -40 4 5 13 29 20 54 23 82 72 190 83 183 6
-3 8 -1 4 5 -3 6 -2 22 4 36 9 26 9 26 -44 26 -30 0 -61 2 -68 5 -9 4 -28 -11
-49 -36z"/>
<path d="M1995 500 c-3 -6 -1 -10 4 -10 6 0 11 -9 11 -20 0 -11 3 -20 8 -20 8
0 32 -49 32 -67 0 -7 3 -13 8 -13 4 0 16 -24 26 -52 10 -29 23 -64 29 -78 6
-14 11 -28 11 -32 2 -17 14 -16 31 2 10 11 15 20 11 20 -4 0 -2 8 3 19 13 23
47 33 64 17 16 -15 80 -46 86 -41 5 6 -51 118 -64 127 -7 5 -7 8 0 8 7 0 7 3
0 8 -6 4 -24 27 -40 52 -53 79 -67 88 -145 89 -38 0 -72 -4 -75 -9z"/>
</g>
</svg>
